# xmcd CD database file
#
# Track frame offsets:
#	150
#	24381
#	41483
#	62910
#	83148
#	97725
#	119743
#	142222
#	163230
#	185259
#	199365
#	211182
#	226561
#
# Disc length: 3627 seconds
#
# Revision: 1
# Processed by: cddbd v1.5.2PL0 Copyright (c) Steve Scherf et al.
# Submitted via: CDex 1.51
#
DISCID=b10e290d
DTITLE=Nico Wayne Toussaint - Transgender
DYEAR=2002
DGENRE=Blues
TTITLE0=Give Me A Break
TTITLE1=I Can't Stop Playing The Blues
TTITLE2=Anytime You Want
TTITLE3=She Told Me To Get Off
TTITLE4=Love Me
TTITLE5=Smoking Gun
TTITLE6=The Sunny Side Of The Road
TTITLE7=I Was Wrong
TTITLE8=Don't Go No Farther
TTITLE9=Whisky
TTITLE10=When The Bobcat Play
TTITLE11=Ce Soir
TTITLE12=Hoochie Coochie Man
EXTD=YEAR: 2002
EXTT0=
EXTT1=
EXTT2=
EXTT3=
EXTT4=
EXTT5=
EXTT6=
EXTT7=
EXTT8=
EXTT9=
EXTT10=
EXTT11=
EXTT12=
PLAYORDER=
